<svg width="891" height="149" viewBox="0 0 891 149" fill="none" xmlns="http://www.w3.org/2000/svg">
<path d="M148.919 64.0945L112.17 100.846L100.416 48.5031L48.0738 36.7505L84.8243 0L137.166 11.7532L148.919 64.0945Z" fill="url(#paint0_radial_13_3)"/>
<path d="M100.845 112.168L64.0957 148.92L52.3419 96.5768L0 84.8243L36.7505 48.0738L89.0918 59.8269L100.845 112.168Z" fill="url(#paint1_radial_13_3)"/>
<path d="M408.674 88.6704C409.38 87.9295 409.776 86.9246 409.776 85.8768V55.1047C409.776 54.0569 409.38 53.052 408.674 52.311L401.087 44.3509C400.381 43.61 399.423 43.1937 398.425 43.1937L355.42 43.1934C353.341 43.1934 351.655 41.4246 351.655 39.2427V31.3664C351.655 29.1844 349.969 27.4156 347.89 27.4156H345.628C343.549 27.4156 341.863 29.1844 341.863 31.3664V85.8765C341.863 86.9243 342.26 87.9292 342.966 88.6701L350.552 96.6302C351.258 97.3712 352.216 97.7874 353.215 97.7874L398.425 97.7877C399.423 97.7877 400.381 97.3715 401.087 96.6306L408.674 88.6704ZM355.42 87.8447C353.341 87.8447 351.655 86.0759 351.655 83.8939V57.0875C351.655 54.9056 353.341 53.1368 355.42 53.1368H396.535C398.614 53.1368 400.3 54.9056 400.3 57.0875V83.8939C400.3 86.0759 398.614 87.8447 396.535 87.8447H355.42Z" fill="white"/>
<path d="M608.138 88.6688C607.432 87.9279 607.036 86.923 607.036 85.8752V55.1031C607.036 54.0553 607.432 53.0504 608.138 52.3095L615.725 44.3493C616.431 43.6084 617.389 43.1922 618.387 43.1922L661.392 43.1919C663.471 43.1919 665.157 41.4231 665.157 39.2411V31.3648C665.157 29.1829 666.843 27.4141 668.922 27.4141H671.184C673.263 27.4141 674.949 29.1829 674.949 31.3648V85.8749C674.949 86.9227 674.552 87.9276 673.846 88.6685L666.26 96.6287C665.554 97.3696 664.596 97.7859 663.597 97.7859L618.387 97.7862C617.389 97.7862 616.431 97.3699 615.725 96.629L608.138 88.6688ZM661.392 87.8431C663.471 87.8431 665.157 86.0743 665.157 83.8924V57.086C665.157 54.904 663.471 53.1352 661.392 53.1352H620.277C618.198 53.1352 616.512 54.904 616.512 57.086V83.8924C616.512 86.0743 618.198 87.8431 620.277 87.8431H661.392Z" fill="white"/>
<path d="M329.468 88.6695C330.174 87.9286 330.571 86.9237 330.571 85.8759V55.1038C330.571 54.056 330.174 53.0511 329.468 52.3102L321.881 44.35C321.175 43.6091 320.217 43.1928 319.219 43.1928H275.674C274.697 43.1928 273.758 43.5915 273.056 44.3046L265.505 51.9717C264.772 52.716 264.358 53.7405 264.358 54.8107L264.358 85.8759C264.358 86.9237 264.755 87.9286 265.461 88.6695L273.048 96.6297C273.754 97.3706 274.712 97.7868 275.71 97.7868H319.219C320.217 97.7868 321.175 97.3706 321.881 96.6297L329.468 88.6695ZM277.916 87.8441C275.836 87.8441 274.151 86.0753 274.151 83.8933V57.0869C274.151 54.905 275.836 53.1362 277.916 53.1362L317.329 53.1359C319.409 53.1359 321.094 54.9047 321.094 57.0867V83.893C321.094 86.075 319.409 87.8438 317.329 87.8438L277.916 87.8441Z" fill="white"/>
<path d="M591.977 97.7857C594.057 97.7857 595.742 96.0169 595.742 93.8349V55.1026C595.742 54.0548 595.346 53.0499 594.64 52.309L587.053 44.3488C586.347 43.6079 585.389 43.1917 584.391 43.1917L540.644 43.1909C539.667 43.1909 538.728 43.5896 538.026 44.3027L530.475 51.9697C529.742 52.714 529.328 53.7385 529.328 54.8088L529.328 85.874C529.328 86.9218 529.725 87.9266 530.431 88.6675L538.018 96.6278C538.724 97.3686 539.682 97.7849 540.68 97.7849L569.828 97.7857C570.219 97.7857 570.608 97.7217 570.98 97.596L583.46 93.3857C584.847 92.9179 586.266 94.0032 586.266 95.5316C586.266 96.7765 587.228 97.7857 588.414 97.7857H591.977ZM542.886 87.8422C540.806 87.8422 539.121 86.0734 539.121 83.8914V57.085C539.121 54.9031 540.806 53.1343 542.886 53.1343L582.501 53.1347C584.58 53.1347 586.266 54.9035 586.266 57.0855V83.8918C586.266 86.0738 584.58 87.8426 582.501 87.8426L542.886 87.8422Z" fill="white"/>
<path d="M856.962 97.7799C859.042 97.7799 860.727 96.0111 860.727 93.8291V55.0969C860.727 54.049 860.331 53.0442 859.625 52.3032L852.038 44.343C851.332 43.6021 850.374 43.1859 849.376 43.1859L805.629 43.1851C804.652 43.1851 803.713 43.5838 803.011 44.2969L795.46 51.964C794.727 52.7083 794.313 53.7327 794.313 54.803L794.313 85.8682C794.313 86.916 794.71 87.9209 795.416 88.6618L803.003 96.622C803.709 97.3629 804.667 97.7791 805.665 97.7791L834.812 97.7799C835.204 97.7799 835.593 97.7159 835.965 97.5903L848.445 93.38C849.832 92.9121 851.251 93.9974 851.251 95.5258C851.251 96.7707 852.213 97.7799 853.399 97.7799H856.962ZM807.871 87.8364C805.791 87.8364 804.105 86.0676 804.105 83.8857V57.0793C804.105 54.8973 805.791 53.1285 807.871 53.1285L847.486 53.1289C849.565 53.1289 851.251 54.8978 851.251 57.0797V83.8861C851.251 86.068 849.565 87.8368 847.486 87.8368L807.871 87.8364Z" fill="white"/>
<path fill-rule="evenodd" clip-rule="evenodd" d="M519.84 52.6402C520.052 52.8627 520.171 53.1644 520.171 53.4789V67.1256C520.171 67.4316 520.059 67.7258 519.857 67.9467L511.017 77.6161C510.804 77.8493 510.51 77.9812 510.202 77.9812L464.499 78.3012C463.875 78.3012 463.368 78.8323 463.368 79.4874V86.6465C463.368 87.3016 463.875 87.8327 464.499 87.8327H485.251C485.875 87.8327 486.381 88.3637 486.381 89.0188V96.6016C486.381 97.2567 485.875 97.7877 485.251 97.7877H463.823C463.531 97.7877 463.251 97.6694 463.04 97.4576L453.825 88.1828C453.603 87.9591 453.477 87.65 453.477 87.3268V53.6093C453.477 53.2817 453.606 52.9687 453.834 52.7445L463.042 43.4598C463.252 43.2534 463.528 43.1385 463.816 43.1385L510.215 43.0326C510.515 43.0326 510.803 43.1575 511.015 43.38L519.84 52.6402ZM464.499 53.3077C463.875 53.3077 463.368 53.8387 463.368 54.4938V67.3718C463.368 68.0269 463.875 68.558 464.499 68.558L509.351 68.2379C509.976 68.2379 510.482 67.7069 510.482 67.0518V54.1738C510.482 53.5187 509.976 52.9876 509.351 52.9876L464.499 53.3077Z" fill="white"/>
<path d="M246.414 27.6273C244.334 27.6273 242.648 29.3961 242.648 31.5781V83.2655C242.648 85.4474 240.963 87.2162 238.883 87.2162H207.742C205.662 87.2162 203.977 88.9851 203.977 91.167V93.8361C203.977 96.018 205.662 97.7868 207.742 97.7868H241.089C242.087 97.7868 243.045 97.3706 243.751 96.6297L251.956 88.021C252.662 87.2801 253.059 86.2752 253.059 85.2274V31.5781C253.059 29.3961 251.373 27.6273 249.293 27.6273H246.414Z" fill="white"/>
<path d="M752.739 49.7787V47.0897C752.739 44.9078 751.053 43.139 748.973 43.139H697.596C696.584 43.139 695.615 43.5662 694.907 44.3245L687.199 52.5773C686.509 53.3158 686.123 54.3086 686.123 55.3426V66.7668C686.123 67.9041 686.59 68.9862 687.404 69.7363L694.948 76.6827C695.635 77.3152 696.518 77.6639 697.432 77.6639H738.476C740.556 77.6639 742.242 79.4328 742.242 81.6147V84.7273C742.242 86.9092 740.556 88.678 738.476 88.678H718.417C716.337 88.678 714.652 90.4469 714.652 92.6288V93.8351C714.652 96.017 716.337 97.7859 718.417 97.7859H740.887C741.763 97.7859 742.611 97.4654 743.286 96.8797L751.373 89.8631C752.238 89.1126 752.739 87.9962 752.739 86.8185V79.5235C752.739 78.3458 752.238 77.2294 751.373 76.4789L743.286 69.4623C742.611 68.8766 741.763 68.5561 740.887 68.5561H699.779C697.7 68.5561 696.014 66.7873 696.014 64.6054V57.6802C696.014 55.4983 697.7 53.7295 699.779 53.7295H748.973C751.053 53.7295 752.739 51.9606 752.739 49.7787Z" fill="white"/>
<path d="M429.08 27.6282C431.16 27.6282 432.846 29.397 432.846 31.5789V83.2664C432.846 85.4483 434.532 87.2171 436.611 87.2171H437.646C439.725 87.2171 441.411 88.986 441.411 91.1679V93.8369C441.411 96.0189 439.725 97.7877 437.646 97.7877H434.405C433.407 97.7877 432.449 97.3715 431.743 96.6305L423.538 88.0219C422.832 87.281 422.436 86.2761 422.436 85.2283V31.5789C422.436 29.397 424.121 27.6282 426.201 27.6282H429.08Z" fill="white"/>
<path d="M878.669 43.7794C880.749 43.7794 882.434 45.5477 882.435 47.7293L882.434 83.2594C882.435 85.441 884.12 87.2093 886.2 87.2093H887.235C889.315 87.2093 891 88.9782 891 91.1601V93.8291C891 96.0111 889.315 97.7799 887.235 97.7799H883.995C882.996 97.7799 882.038 97.3637 881.332 96.6228L873.127 88.0138C872.422 87.2731 872.025 86.2685 872.025 85.221V47.7311C872.024 45.5488 873.71 43.7794 875.79 43.7794H878.669Z" fill="white"/>
<path d="M872.025 31.5116C872.025 29.3297 873.711 27.5609 875.79 27.5609H878.669C880.749 27.5609 882.435 29.3297 882.435 31.5116V34.1455C882.435 36.3274 880.749 38.0962 878.669 38.0962H875.79C873.711 38.0962 872.025 36.3274 872.025 34.1455V31.5116Z" fill="white"/>
<path d="M769.44 91.2013C769.44 89.0193 771.125 87.2505 773.205 87.2505H776.084C778.164 87.2505 779.85 89.0193 779.85 91.2013V93.8351C779.85 96.017 778.164 97.7859 776.084 97.7859H773.205C771.125 97.7859 769.44 96.017 769.44 93.8351V91.2013Z" fill="white"/>
<defs>
<radialGradient id="paint0_radial_13_3" cx="0" cy="0" r="1" gradientUnits="userSpaceOnUse" gradientTransform="translate(143.415 -1.13443e-05) rotate(129.812) scale(297.397 297.397)">
<stop offset="0.00961538" stop-color="white"/>
<stop offset="0.139423" stop-color="#7E96FF"/>
<stop offset="0.283379" stop-color="#20439C"/>
<stop offset="0.429002" stop-color="#072571"/>
<stop offset="0.602117" stop-color="#072571"/>
</radialGradient>
<radialGradient id="paint1_radial_13_3" cx="0" cy="0" r="1" gradientUnits="userSpaceOnUse" gradientTransform="translate(143.415 -1.13443e-05) rotate(129.812) scale(297.397 297.397)">
<stop offset="0.00961538" stop-color="white"/>
<stop offset="0.139423" stop-color="#7E96FF"/>
<stop offset="0.283379" stop-color="#20439C"/>
<stop offset="0.429002" stop-color="#072571"/>
<stop offset="0.602117" stop-color="#072571"/>
</radialGradient>
</defs>
</svg>
