<svg width="891" height="150" viewBox="0 0 891 150" fill="none" xmlns="http://www.w3.org/2000/svg">
<path d="M408.674 90.729C409.38 89.9881 409.777 88.9832 409.777 87.9354V57.1633C409.777 56.1154 409.38 55.1106 408.674 54.3696L401.088 46.4095C400.381 45.6686 399.424 45.2523 398.425 45.2523L355.421 45.252C353.341 45.252 351.656 43.4832 351.656 41.3013V33.425C351.656 31.243 349.97 29.4742 347.89 29.4742H345.629C343.549 29.4742 341.863 31.243 341.863 33.425V87.935C341.863 88.9829 342.26 89.9878 342.966 90.7287L350.553 98.6888C351.259 99.4298 352.217 99.846 353.215 99.846L398.425 99.8463C399.424 99.8463 400.381 99.4301 401.088 98.6891L408.674 90.729ZM355.421 89.9033C353.341 89.9033 351.656 88.1345 351.656 85.9525V59.1461C351.656 56.9642 353.341 55.1954 355.421 55.1954H396.535C398.615 55.1954 400.301 56.9642 400.301 59.1461V85.9525C400.301 88.1345 398.615 89.9033 396.535 89.9033H355.421Z" fill="#313131"/>
<path d="M608.139 90.7274C607.433 89.9865 607.036 88.9816 607.036 87.9338V57.1617C607.036 56.1139 607.433 55.109 608.139 54.3681L615.725 46.4079C616.432 45.667 617.389 45.2508 618.388 45.2508L661.392 45.2505C663.472 45.2505 665.157 43.4816 665.157 41.2997V33.4234C665.157 31.2415 666.843 29.4727 668.923 29.4727H671.184C673.264 29.4727 674.95 31.2415 674.95 33.4234V87.9335C674.95 88.9813 674.553 89.9862 673.847 90.7271L666.26 98.6873C665.554 99.4282 664.596 99.8444 663.598 99.8445L618.388 99.8447C617.389 99.8448 616.432 99.4285 615.725 98.6876L608.139 90.7274ZM661.392 89.9017C663.472 89.9017 665.157 88.1329 665.157 85.951V59.1446C665.157 56.9626 663.472 55.1938 661.392 55.1938H620.278C618.198 55.1938 616.512 56.9626 616.512 59.1446V85.951C616.512 88.1329 618.198 89.9017 620.278 89.9017H661.392Z" fill="#313131"/>
<path d="M329.468 90.7281C330.174 89.9872 330.571 88.9823 330.571 87.9345V57.1624C330.571 56.1146 330.174 55.1097 329.468 54.3687L321.882 46.4086C321.176 45.6677 320.218 45.2514 319.219 45.2514H275.675C274.697 45.2514 273.758 45.6501 273.056 46.3632L265.506 54.0303C264.773 54.7746 264.359 55.799 264.359 56.8693L264.359 87.9345C264.359 88.9823 264.756 89.9872 265.462 90.7281L273.048 98.6883C273.754 99.4292 274.712 99.8454 275.711 99.8454H319.219C320.218 99.8454 321.176 99.4292 321.882 98.6883L329.468 90.7281ZM277.916 89.9027C275.837 89.9027 274.151 88.1339 274.151 85.9519V59.1455C274.151 56.9636 275.837 55.1948 277.916 55.1948L317.33 55.1945C319.409 55.1945 321.095 56.9633 321.095 59.1453V85.9516C321.095 88.1336 319.409 89.9024 317.33 89.9024L277.916 89.9027Z" fill="#313131"/>
<path d="M591.978 99.8443C594.057 99.8443 595.743 98.0755 595.743 95.8935V57.1612C595.743 56.1134 595.346 55.1085 594.64 54.3676L587.054 46.4074C586.347 45.6665 585.39 45.2503 584.391 45.2503L540.645 45.2495C539.667 45.2495 538.728 45.6482 538.026 46.3613L530.475 54.0283C529.742 54.7726 529.329 55.7971 529.329 56.8674L529.329 87.9325C529.329 88.9803 529.726 89.9852 530.432 90.7261L538.018 98.6864C538.724 99.4272 539.682 99.8435 540.681 99.8435L569.828 99.8442C570.219 99.8443 570.608 99.7803 570.981 99.6546L583.461 95.4443C584.848 94.9765 586.267 96.0618 586.267 97.5902C586.267 98.8351 587.228 99.8443 588.415 99.8443H591.978ZM542.886 89.9008C540.807 89.9008 539.121 88.132 539.121 85.95V59.1436C539.121 56.9617 540.807 55.1929 542.886 55.1929L582.501 55.1933C584.581 55.1933 586.267 56.9621 586.267 59.1441V85.9504C586.267 88.1324 584.581 89.9012 582.501 89.9012L542.886 89.9008Z" fill="#313131"/>
<path d="M856.963 99.8385C859.042 99.8385 860.728 98.0697 860.728 95.8877V57.1554C860.728 56.1076 860.331 55.1027 859.625 54.3618L852.038 46.4016C851.332 45.6607 850.375 45.2445 849.376 45.2445L805.63 45.2437C804.652 45.2437 803.713 45.6424 803.011 46.3555L795.46 54.0226C794.727 54.7669 794.314 55.7913 794.314 56.8616L794.314 87.9268C794.314 88.9746 794.71 89.9795 795.417 90.7204L803.003 98.6806C803.709 99.4215 804.667 99.8377 805.666 99.8377L834.813 99.8385C835.204 99.8385 835.593 99.7745 835.966 99.6489L848.446 95.4386C849.832 94.9707 851.252 96.056 851.252 97.5844C851.252 98.8293 852.213 99.8385 853.4 99.8385H856.963ZM807.871 89.895C805.792 89.895 804.106 88.1262 804.106 85.9442V59.1379C804.106 56.9559 805.792 55.1871 807.871 55.1871L847.486 55.1875C849.566 55.1875 851.252 56.9564 851.252 59.1383V85.9447C851.252 88.1266 849.566 89.8954 847.486 89.8954L807.871 89.895Z" fill="#313131"/>
<path fill-rule="evenodd" clip-rule="evenodd" d="M519.841 54.6988C520.053 54.9213 520.172 55.223 520.172 55.5375V69.1842C520.172 69.4902 520.059 69.7844 519.857 70.0053L511.018 79.6747C510.805 79.9079 510.51 80.0398 510.202 80.0398L464.499 80.3598C463.875 80.3598 463.369 80.8909 463.369 81.5459V88.7051C463.369 89.3602 463.875 89.8913 464.499 89.8913H485.251C485.876 89.8913 486.382 90.4223 486.382 91.0774V98.6602C486.382 99.3153 485.876 99.8463 485.251 99.8463H463.823C463.532 99.8463 463.251 99.728 463.041 99.5162L453.825 90.2414C453.603 90.0177 453.477 89.7086 453.477 89.3854V55.6679C453.477 55.3403 453.607 55.0273 453.834 54.8031L463.043 45.5184C463.252 45.312 463.529 45.1971 463.816 45.1971L510.216 45.0912C510.516 45.0912 510.803 45.2161 511.015 45.4386L519.841 54.6988ZM464.499 55.3663C463.875 55.3663 463.369 55.8973 463.369 56.5524V69.4304C463.369 70.0855 463.875 70.6166 464.499 70.6166L509.352 70.2965C509.976 70.2965 510.482 69.7655 510.482 69.1104V56.2324C510.482 55.5773 509.976 55.0462 509.352 55.0462L464.499 55.3663Z" fill="#313131"/>
<path d="M246.414 29.6859C244.335 29.6859 242.649 31.4547 242.649 33.6367V85.3241C242.649 87.506 240.963 89.2748 238.884 89.2748H207.742C205.663 89.2748 203.977 91.0437 203.977 93.2256V95.8946C203.977 98.0766 205.663 99.8454 207.742 99.8454H241.089C242.088 99.8454 243.046 99.4292 243.752 98.6883L251.956 90.0796C252.662 89.3387 253.059 88.3338 253.059 87.286V33.6367C253.059 31.4547 251.373 29.6859 249.294 29.6859H246.414Z" fill="#313131"/>
<path d="M752.739 51.8373V49.1483C752.739 46.9664 751.053 45.1976 748.974 45.1976H697.597C696.585 45.1976 695.616 45.6248 694.907 46.3831L687.199 54.6359C686.509 55.3744 686.123 56.3672 686.123 57.4012V68.8254C686.123 69.9627 686.59 71.0448 687.405 71.7949L694.949 78.7413C695.636 79.3738 696.519 79.7225 697.432 79.7225H738.477C740.556 79.7225 742.242 81.4913 742.242 83.6733V86.7859C742.242 88.9678 740.556 90.7366 738.477 90.7366H718.418C716.338 90.7366 714.652 92.5055 714.652 94.6874V95.8937C714.652 98.0756 716.338 99.8445 718.418 99.8445H740.887C741.763 99.8445 742.611 99.524 743.286 98.9383L751.373 91.9217C752.238 91.1711 752.739 90.0548 752.739 88.877V81.5821C752.739 80.4044 752.238 79.288 751.373 78.5375L743.286 71.5209C742.611 70.9352 741.763 70.6147 740.887 70.6147H699.78C697.7 70.6147 696.015 68.8459 696.015 66.664V59.7388C696.015 57.5569 697.7 55.788 699.78 55.788H748.974C751.053 55.788 752.739 54.0192 752.739 51.8373Z" fill="#313131"/>
<path d="M429.081 29.6868C431.16 29.6868 432.846 31.4556 432.846 33.6375V85.325C432.846 87.5069 434.532 89.2757 436.612 89.2757H437.646C439.726 89.2757 441.412 91.0445 441.412 93.2265V95.8955C441.412 98.0775 439.726 99.8463 437.646 99.8463H434.406C433.407 99.8463 432.45 99.4301 431.743 98.6891L423.539 90.0805C422.833 89.3396 422.436 88.3347 422.436 87.2869V33.6375C422.436 31.4556 424.122 29.6868 426.201 29.6868H429.081Z" fill="#313131"/>
<path d="M878.67 45.838C880.749 45.838 882.435 47.6063 882.435 49.7879L882.435 85.318C882.435 87.4996 884.121 89.2679 886.2 89.2679H887.236C889.315 89.2679 891.001 91.0368 891.001 93.2187V95.8877C891.001 98.0697 889.315 99.8385 887.236 99.8385H883.995C882.997 99.8385 882.039 99.4223 881.333 98.6813L873.128 90.0724C872.422 89.3317 872.025 88.3271 872.025 87.2796V49.7897C872.025 47.6074 873.711 45.838 875.79 45.838H878.67Z" fill="#313131"/>
<path d="M872.025 33.5702C872.025 31.3883 873.711 29.6194 875.791 29.6194H878.67C880.75 29.6194 882.435 31.3883 882.435 33.5702V36.2041C882.435 38.386 880.75 40.1548 878.67 40.1548H875.791C873.711 40.1548 872.025 38.386 872.025 36.2041V33.5702Z" fill="#313131"/>
<path d="M769.44 93.2598C769.44 91.0779 771.126 89.3091 773.205 89.3091H776.085C778.164 89.3091 779.85 91.0779 779.85 93.2598V95.8937C779.85 98.0756 778.164 99.8445 776.085 99.8445H773.205C771.126 99.8445 769.44 98.0756 769.44 95.8937V93.2598Z" fill="#313131"/>
<path d="M149.288 64.2534L149.289 64.2546L112.448 101.096L100.665 48.6233L48.1929 36.8416L85.0345 0L85.0358 0.00125497L137.506 11.7823L149.288 64.2534Z" fill="url(#paint0_radial_46_27)"/>
<path d="M101.095 112.446L101.096 112.448L64.2546 149.289L52.4717 96.8162L0 85.0345L36.8416 48.1929L36.8429 48.1942L89.3127 59.9752L101.095 112.446Z" fill="url(#paint1_radial_46_27)"/>
<defs>
<radialGradient id="paint0_radial_46_27" cx="0" cy="0" r="1" gradientUnits="userSpaceOnUse" gradientTransform="translate(136.5 12) rotate(131.54) scale(152.306)">
<stop stop-color="#F02815"/>
<stop offset="0.336538" stop-color="#FF643F"/>
<stop offset="0.543269" stop-color="#F66C28"/>
<stop offset="0.783654" stop-color="#FCB29C"/>
<stop offset="0.990385" stop-color="white"/>
</radialGradient>
<radialGradient id="paint1_radial_46_27" cx="0" cy="0" r="1" gradientUnits="userSpaceOnUse" gradientTransform="translate(136.5 12) rotate(131.54) scale(152.306)">
<stop stop-color="#F02815"/>
<stop offset="0.336538" stop-color="#FF643F"/>
<stop offset="0.543269" stop-color="#F66C28"/>
<stop offset="0.783654" stop-color="#FCB29C"/>
<stop offset="0.990385" stop-color="white"/>
</radialGradient>
</defs>
</svg>
