<svg width="376" height="376" viewBox="0 0 376 376" fill="none" xmlns="http://www.w3.org/2000/svg">
<path d="M361.255 43.1303L147.774 256.617L118.942 256.852L119.177 228.021L332.658 14.5336L361.49 14.2984L361.255 43.1303Z" fill="url(#paint0_linear_96_331)"/>
<path d="M256.615 43.1303L43.1341 256.617L14.3021 256.852L14.5373 228.021L228.018 14.5336L256.85 14.2984L256.615 43.1303Z" fill="#D9D9D9"/>
<path d="M256.615 43.1303L43.1341 256.617L14.3021 256.852L14.5373 228.021L228.018 14.5336L256.85 14.2984L256.615 43.1303Z" fill="url(#paint1_linear_96_331)"/>
<path d="M147.794 361.256L361.281 147.775L361.517 118.943L332.685 119.178L119.198 332.659L118.962 361.491L147.794 361.256Z" fill="#D9D9D9"/>
<path d="M147.794 361.256L361.281 147.775L361.517 118.943L332.685 119.178L119.198 332.659L118.962 361.491L147.794 361.256Z" fill="url(#paint2_linear_96_331)"/>
<path d="M316.294 233.515L235 314.896L234.764 343.728L263.596 343.492L344.891 262.112L345.126 233.28L316.294 233.515Z" fill="#D9D9D9"/>
<path d="M316.294 233.515L235 314.896L234.764 343.728L263.596 343.492L344.891 262.112L345.126 233.28L316.294 233.515Z" fill="url(#paint3_linear_96_331)"/>
<path d="M113.894 31.2912L32.5993 112.672L32.364 141.504L61.196 141.269L142.491 59.888L142.726 31.056L113.894 31.2912Z" fill="#D9D9D9"/>
<path d="M113.894 31.2912L32.5993 112.672L32.364 141.504L61.196 141.269L142.491 59.888L142.726 31.056L113.894 31.2912Z" fill="url(#paint4_linear_96_331)"/>
<defs>
<linearGradient id="paint0_linear_96_331" x1="350.88" y1="17.3209" x2="221.341" y2="255.559" gradientUnits="userSpaceOnUse">
<stop stop-color="white"/>
<stop offset="0.670359" stop-color="#906DFF"/>
<stop offset="1" stop-color="#D68B9C"/>
</linearGradient>
<linearGradient id="paint1_linear_96_331" x1="244.997" y1="16.1945" x2="108.137" y2="202.054" gradientUnits="userSpaceOnUse">
<stop stop-color="white"/>
<stop offset="0.670359" stop-color="#906DFF"/>
<stop offset="1" stop-color="#D68B9C"/>
</linearGradient>
<linearGradient id="paint2_linear_96_331" x1="215.147" y1="324.27" x2="345.249" y2="123.204" gradientUnits="userSpaceOnUse">
<stop stop-color="#D68B9C"/>
<stop offset="0.329641" stop-color="#906DFF"/>
<stop offset="1" stop-color="white"/>
</linearGradient>
<linearGradient id="paint3_linear_96_331" x1="331.731" y1="232.467" x2="232.625" y2="331.634" gradientUnits="userSpaceOnUse">
<stop stop-color="white"/>
<stop offset="0.670359" stop-color="#906DFF"/>
<stop offset="1" stop-color="#D68B9C"/>
</linearGradient>
<linearGradient id="paint4_linear_96_331" x1="129.33" y1="30.2436" x2="30.225" y2="129.41" gradientUnits="userSpaceOnUse">
<stop stop-color="white"/>
<stop offset="0.670359" stop-color="#906DFF"/>
<stop offset="1" stop-color="#D68B9C"/>
</linearGradient>
</defs>
</svg>
