<svg width="1387" height="376" viewBox="0 0 1387 376" fill="none" xmlns="http://www.w3.org/2000/svg">
<path d="M533.168 108.427H565.8V233.677H637.106V265.52H533.168V108.427Z" fill="#2A2A2A"/>
<path d="M664.62 108.73H767.953V140.573H696.345V172.416H765.234V201.833H696.345V233.677H767.953V265.52H664.62V108.73Z" fill="#2A2A2A"/>
<path d="M849.032 108.427H882.873L939.978 265.52H906.138L894.052 231.857H838.155L826.069 265.52H792.229L849.032 108.427ZM865.952 155.13L849.939 200.014H882.268L865.952 155.13Z" fill="#2A2A2A"/>
<path d="M964.393 108.73H1012.74C1057.76 108.73 1094.01 143.606 1094.01 187.276C1094.01 230.644 1057.76 265.823 1012.74 265.52H964.393V108.73ZM996.118 138.147V236.103H1012.74C1037.81 236.103 1061.99 213.661 1061.99 187.276C1061.99 160.589 1037.81 138.147 1012.74 138.147H996.118Z" fill="#2A2A2A"/>
<path d="M1119.35 108.73H1222.68V140.573H1151.07V172.416H1219.96V201.833H1151.07V233.677H1222.68V265.52H1119.35V108.73Z" fill="#2A2A2A"/>
<path d="M1247.11 108.427H1282.76L1316.9 177.572L1351.35 108.427H1387L1332.92 216.997V265.52H1301.19V216.997L1247.11 108.427Z" fill="#2A2A2A"/>
<path d="M361.299 43.1358L147.791 256.65L118.956 256.885L119.191 228.05L332.699 14.5354L361.535 14.3002L361.299 43.1358Z" fill="url(#paint0_linear_96_372)"/>
<path d="M256.647 43.1358L43.1389 256.65L14.3033 256.885L14.5385 228.05L228.047 14.5354L256.882 14.3002L256.647 43.1358Z" fill="#D9D9D9"/>
<path d="M256.647 43.1358L43.1389 256.65L14.3033 256.885L14.5385 228.05L228.047 14.5354L256.882 14.3002L256.647 43.1358Z" fill="url(#paint1_linear_96_372)"/>
<path d="M147.812 361.302L361.326 147.794L361.561 118.959L332.725 119.194L119.211 332.702L118.976 361.537L147.812 361.302Z" fill="#D9D9D9"/>
<path d="M147.812 361.302L361.326 147.794L361.561 118.959L332.725 119.194L119.211 332.702L118.976 361.537L147.812 361.302Z" fill="url(#paint2_linear_96_372)"/>
<path d="M316.337 233.545L235.032 314.937L234.796 343.772L263.632 343.537L344.937 262.146L345.172 233.31L316.337 233.545Z" fill="#D9D9D9"/>
<path d="M316.337 233.545L235.032 314.937L234.796 343.772L263.632 343.537L344.937 262.146L345.172 233.31L316.337 233.545Z" fill="url(#paint3_linear_96_372)"/>
<path d="M113.907 31.2963L32.6019 112.688L32.3667 141.523L61.2023 141.288L142.507 59.8966L142.743 31.061L113.907 31.2963Z" fill="#D9D9D9"/>
<path d="M113.907 31.2963L32.6019 112.688L32.3667 141.523L61.2023 141.288L142.507 59.8966L142.743 31.061L113.907 31.2963Z" fill="url(#paint4_linear_96_372)"/>
<defs>
<linearGradient id="paint0_linear_96_372" x1="350.923" y1="17.3231" x2="221.368" y2="255.592" gradientUnits="userSpaceOnUse">
<stop stop-color="white"/>
<stop offset="0.670359" stop-color="#4D5BFF"/>
<stop offset="1" stop-color="#C499FF"/>
</linearGradient>
<linearGradient id="paint1_linear_96_372" x1="245.028" y1="16.1966" x2="108.15" y2="202.08" gradientUnits="userSpaceOnUse">
<stop stop-color="white"/>
<stop offset="0.670359" stop-color="#4D5BFF"/>
<stop offset="1" stop-color="#C499FF"/>
</linearGradient>
<linearGradient id="paint2_linear_96_372" x1="215.173" y1="324.312" x2="345.291" y2="123.22" gradientUnits="userSpaceOnUse">
<stop stop-color="#C499FF"/>
<stop offset="0.329641" stop-color="#4D5BFF"/>
<stop offset="1" stop-color="white"/>
</linearGradient>
<linearGradient id="paint3_linear_96_372" x1="331.775" y1="232.498" x2="232.657" y2="331.677" gradientUnits="userSpaceOnUse">
<stop stop-color="white"/>
<stop offset="0.670359" stop-color="#4D5BFF"/>
<stop offset="1" stop-color="#C499FF"/>
</linearGradient>
<linearGradient id="paint4_linear_96_372" x1="129.345" y1="30.2485" x2="30.2274" y2="129.428" gradientUnits="userSpaceOnUse">
<stop stop-color="white"/>
<stop offset="0.670359" stop-color="#4D5BFF"/>
<stop offset="1" stop-color="#C499FF"/>
</linearGradient>
</defs>
</svg>
